<svg id="Layer_1" data-name="Layer 1" xmlns="http://www.w3.org/2000/svg" xmlns:xlink="http://www.w3.org/1999/xlink" viewBox="0 0 65.738 65.738"><defs><linearGradient id="Sfumatura_senza_nome_2" x1="49.306" y1="61.339" x2="16.432" y2="4.399" gradientUnits="userSpaceOnUse"><stop offset="0" stop-color="#d4d4d4"/><stop offset="0" stop-color="#d6d6d6"/><stop offset="0.125" stop-color="#c5c5c5"/><stop offset="0.373" stop-color="#999"/><stop offset="0.715" stop-color="#535353"/><stop offset="1" stop-color="#141414"/></linearGradient></defs><title>diverse</title><circle cx="32.869" cy="32.869" r="32.869" style="fill:url(#Sfumatura_senza_nome_2)"/><path d="M283.861,400.623V440.9c.234.012.416.028.6.028,3.681,0,7.362.007,11.043,0a28.278,28.278,0,0,0,3.062-.177Z" transform="translate(-265.055 -387.599)" style="fill:#fff"/><path d="M317.671,418.01a18.7,18.7,0,0,0-6.887-12.322,22.9,22.9,0,0,0-14.484-5.182c-2.7-.059-5.4-.047-8.1-.033l14.465,39.477a23.976,23.976,0,0,0,2.464-.846C313.693,435.619,318.936,427.482,317.671,418.01Z" transform="translate(-265.055 -387.599)" style="fill:#fff"/></svg>